<?xml version="1.0" encoding="UTF-8" ?>
<!DOCTYPE svg PUBLIC "-//W3C//DTD SVG 1.1//EN" "http://www.w3.org/Graphics/SVG/1.1/DTD/svg11.dtd">
<svg width="1156pt" height="861pt" viewBox="0 0 1156 861" version="1.1" xmlns="http://www.w3.org/2000/svg">
<g id="#00a0e3ff">
<path fill="#00a0e3" opacity="1.00" d=" M 554.54 1.82 C 578.30 -0.40 602.33 1.84 625.52 7.28 C 663.38 16.16 699.16 31.81 734.70 47.25 C 739.51 49.50 744.52 51.33 749.17 53.90 C 755.77 57.81 756.83 68.00 751.40 73.33 C 747.75 76.68 742.91 78.27 738.56 80.49 C 706.52 94.86 671.77 102.12 637.06 106.37 C 590.52 111.76 543.26 111.30 496.87 104.70 C 465.79 100.06 434.76 92.84 406.14 79.58 C 402.50 77.72 398.52 76.30 395.45 73.52 C 390.88 69.16 390.54 61.31 394.57 56.48 C 396.53 53.97 399.57 52.74 402.39 51.48 C 429.53 39.49 456.75 27.57 484.81 17.89 C 507.40 10.15 530.69 3.98 554.54 1.82 Z" />
</g>
<g id="#727271ff">
<path fill="#727271" opacity="1.00" d=" M 329.47 86.69 C 335.45 85.43 341.76 86.31 347.30 88.83 C 377.47 102.65 409.68 111.50 442.18 117.80 C 493.78 127.66 546.52 130.87 598.99 129.23 C 642.38 127.74 685.76 122.78 728.04 112.74 C 752.58 106.87 776.76 99.23 799.71 88.68 C 807.30 85.23 816.35 85.28 823.87 88.91 C 864.05 108.47 904.35 128.02 942.43 151.50 C 965.97 166.04 988.84 181.94 1009.05 200.92 C 1021.64 212.82 1033.23 225.99 1041.86 241.08 C 1048.64 252.95 1053.41 266.16 1054.38 279.86 C 1056.53 327.54 1055.36 375.28 1055.07 422.98 C 1054.68 432.12 1052.66 441.67 1046.91 449.02 C 1043.43 453.47 1038.45 456.62 1033.01 458.06 C 1004.29 465.92 975.24 472.75 945.81 477.42 C 908.90 483.32 871.38 485.52 834.03 483.72 C 785.17 481.51 736.81 473.11 689.16 462.37 C 676.25 460.24 662.66 452.50 659.17 439.06 C 657.88 434.48 658.30 429.68 658.24 424.99 C 658.23 380.00 658.27 335.01 658.22 290.02 C 658.30 274.88 645.10 261.24 629.96 260.90 C 592.98 260.77 556.01 260.88 519.04 260.84 C 507.69 260.62 496.71 267.62 491.95 277.88 C 490.00 281.97 489.06 286.50 489.10 291.02 C 489.06 323.32 489.18 355.63 489.05 387.93 C 488.97 405.20 471.07 419.50 454.20 415.80 C 418.62 406.62 383.43 395.30 346.99 389.84 C 275.06 381.54 201.45 382.12 130.62 398.35 C 117.86 401.59 103.79 394.71 97.91 383.09 C 95.16 377.86 94.37 371.85 94.60 366.01 C 95.34 337.34 94.40 308.66 94.85 279.98 C 95.81 256.51 107.82 235.10 122.65 217.50 C 143.45 193.00 169.58 173.72 196.46 156.41 C 233.17 132.93 272.27 113.51 311.40 94.45 C 317.38 91.77 322.99 88.07 329.47 86.69 Z" />
</g>
<g id="#3fab3cff">
<path fill="#3fab3c" opacity="1.00" d=" M 53.93 443.78 C 111.02 420.39 172.45 408.44 234.02 406.26 C 267.40 405.00 300.84 406.36 334.07 409.64 C 355.30 411.35 376.10 416.21 396.75 421.21 C 438.69 431.66 480.24 443.56 522.22 453.86 C 547.39 460.16 572.76 465.60 598.07 471.27 C 679.73 489.55 762.03 507.88 845.95 510.85 C 906.77 513.15 968.17 506.83 1026.59 489.40 C 1057.86 480.17 1088.22 467.90 1117.29 453.12 C 1124.56 449.47 1132.06 445.90 1140.16 444.54 C 1143.69 444.08 1147.79 443.83 1150.77 446.18 C 1153.20 448.14 1153.37 451.57 1152.96 454.43 C 1150.07 464.47 1142.31 472.26 1133.83 477.91 C 1108.73 494.40 1082.08 508.44 1054.69 520.71 C 1010.41 540.45 964.17 555.58 917.13 567.17 C 844.15 585.00 769.11 594.44 693.99 595.21 C 614.50 595.98 534.58 586.71 458.35 563.73 C 423.30 553.41 388.91 541.06 354.62 528.51 C 315.21 514.20 275.72 499.74 234.84 490.16 C 192.46 480.09 148.53 476.08 105.08 479.85 C 89.89 481.14 74.75 483.18 59.80 486.16 C 45.35 488.53 30.57 490.49 15.95 488.52 C 11.25 487.72 6.19 486.70 2.56 483.37 C 0.08 481.19 -0.02 477.38 1.65 474.68 C 4.52 469.71 9.33 466.28 13.98 463.10 C 26.44 455.03 40.30 449.51 53.93 443.78 Z" />
</g>
<g id="#96ae21ff">
<path fill="#96ae21" opacity="1.00" d=" M 1152.96 454.43 C 1155.83 457.38 1156.02 461.79 1154.65 465.50 C 1151.50 474.46 1144.60 481.60 1137.00 487.03 C 1107.34 507.88 1075.37 525.28 1042.38 540.25 C 998.73 559.99 953.23 575.47 906.90 587.57 C 841.84 604.46 775.04 614.70 707.90 618.01 C 653.36 620.64 598.51 618.65 544.45 610.76 C 504.65 605.07 465.55 595.33 427.05 583.87 C 383.07 570.85 339.92 555.22 295.92 542.30 C 256.49 530.73 216.04 521.81 174.90 519.75 C 147.20 518.28 119.35 519.84 91.96 524.17 C 72.89 526.86 54.33 532.75 35.02 533.67 C 27.41 534.01 19.60 534.01 12.25 531.75 C 8.94 530.65 5.10 528.71 4.40 524.94 C 3.88 520.52 7.11 516.88 10.00 513.97 C 17.60 506.80 26.89 501.78 36.13 497.06 C 43.93 493.25 51.73 489.38 59.80 486.16 C 74.75 483.18 89.89 481.14 105.08 479.85 C 148.53 476.08 192.46 480.09 234.84 490.16 C 275.72 499.74 315.21 514.20 354.62 528.51 C 388.91 541.06 423.30 553.41 458.35 563.73 C 534.58 586.71 614.50 595.98 693.99 595.21 C 769.11 594.44 844.15 585.00 917.13 567.17 C 964.17 555.58 1010.41 540.45 1054.69 520.71 C 1082.08 508.44 1108.73 494.40 1133.83 477.91 C 1142.31 472.26 1150.07 464.47 1152.96 454.43 Z" />
</g>
<g id="#5b5b5bff">
<path fill="#5b5b5b" opacity="1.00" d=" M 180.47 679.64 C 185.24 678.02 190.61 678.03 195.40 679.56 C 199.33 680.83 200.69 685.22 200.96 688.94 C 201.26 693.59 201.39 698.73 198.86 702.85 C 196.14 706.47 191.10 706.61 186.98 706.63 C 183.28 706.47 178.71 706.03 176.64 702.49 C 174.49 698.37 174.64 693.50 174.98 688.99 C 175.27 685.30 176.64 681.01 180.47 679.64 Z" />
<path fill="#5b5b5b" opacity="1.00" d=" M 281.33 679.40 C 286.11 678.06 291.45 678.00 296.12 679.79 C 300.77 681.79 301.22 687.60 301.33 691.99 C 301.25 696.67 301.05 702.97 296.12 705.24 C 291.23 707.14 285.58 707.07 280.60 705.55 C 275.48 703.78 275.02 697.51 274.97 692.94 C 274.94 687.94 275.61 681.06 281.33 679.40 Z" />
<path fill="#5b5b5b" opacity="1.00" d=" M 69.34 685.38 C 75.12 684.15 81.17 684.51 87.04 684.93 C 89.47 684.96 91.76 686.42 92.11 688.97 C 101.88 724.69 111.39 760.47 121.11 796.19 C 130.02 762.73 138.87 729.25 147.75 695.78 C 148.55 692.93 149.05 689.98 150.24 687.26 C 151.33 685.20 153.99 685.01 156.04 684.78 C 160.65 684.54 165.33 684.32 169.91 685.09 C 171.77 685.30 173.19 687.09 172.89 688.97 C 172.54 693.10 171.02 697.01 169.96 700.99 C 158.71 740.09 147.49 779.21 136.23 818.31 C 135.70 820.46 134.37 822.64 131.97 822.95 C 125.72 824.11 119.29 823.58 112.98 823.54 C 109.39 823.46 104.47 822.88 103.64 818.60 C 91.63 776.89 79.63 735.18 67.70 693.45 C 67.07 690.80 65.83 686.50 69.34 685.38 Z" />
<path fill="#5b5b5b" opacity="1.00" d=" M 410.74 689.94 C 410.16 686.73 413.42 685.30 416.04 685.05 C 421.38 684.40 427.00 684.15 432.20 685.79 C 434.06 686.24 434.76 688.15 434.62 689.90 C 434.64 709.20 434.60 728.50 434.63 747.80 C 446.32 728.08 457.93 708.30 469.61 688.57 C 471.59 684.78 476.34 684.76 480.05 684.61 C 484.36 684.63 488.93 684.30 492.98 686.06 C 495.17 686.88 495.32 689.58 494.64 691.50 C 492.77 696.93 489.32 701.59 486.24 706.37 C 477.09 720.44 467.83 734.44 458.75 748.55 C 469.52 767.38 480.14 786.29 490.87 805.14 C 493.04 808.98 495.40 812.81 496.57 817.10 C 497.11 818.87 496.94 821.32 494.99 822.16 C 490.58 824.02 485.61 823.62 480.93 823.62 C 477.25 823.40 472.39 823.37 470.60 819.45 C 458.61 797.51 446.64 775.55 434.64 753.62 C 434.56 775.40 434.70 797.19 434.57 818.97 C 434.81 822.01 431.36 822.89 429.02 823.24 C 423.88 823.86 418.50 824.03 413.51 822.50 C 411.47 821.98 410.48 819.98 410.73 818.00 C 410.74 775.32 410.72 732.63 410.74 689.94 Z" />
<path fill="#5b5b5b" opacity="1.00" d=" M 316.48 699.13 C 316.49 696.70 319.17 695.82 321.15 695.50 C 325.70 694.86 330.39 694.84 334.93 695.60 C 336.65 695.97 338.93 696.82 339.04 698.89 C 339.38 706.19 339.06 713.50 339.17 720.81 C 345.44 720.95 351.73 720.52 357.99 721.01 C 359.91 722.34 360.02 724.93 360.31 727.04 C 360.61 731.02 360.64 735.07 359.87 739.00 C 359.49 740.50 358.81 742.69 356.89 742.60 C 350.99 742.82 345.08 742.58 339.17 742.67 C 339.19 757.78 339.14 772.90 339.19 788.01 C 339.36 792.30 339.56 797.12 342.54 800.52 C 345.99 803.74 351.31 802.94 355.27 801.17 C 356.54 800.72 358.82 799.45 359.49 801.35 C 360.93 806.76 360.76 812.56 359.80 818.05 C 359.18 822.27 354.44 823.49 350.92 824.35 C 341.10 826.35 328.92 825.29 322.52 816.60 C 315.80 807.23 316.44 795.05 316.40 784.08 C 316.40 770.27 316.40 756.47 316.40 742.66 C 312.79 742.55 309.12 743.01 305.56 742.38 C 302.85 739.71 303.38 735.46 303.14 731.99 C 303.37 728.44 302.73 724.16 305.25 721.30 C 308.82 720.24 312.70 721.02 316.39 720.83 C 316.49 713.59 316.24 706.35 316.48 699.13 Z" />
<path fill="#5b5b5b" opacity="1.00" d=" M 910.59 698.46 C 912.02 694.90 916.83 695.41 919.98 695.07 C 924.22 695.34 929.91 694.20 932.87 698.00 C 933.60 705.56 932.97 713.21 933.18 720.81 C 939.45 720.95 945.74 720.53 952.00 721.01 C 953.92 722.36 954.02 724.94 954.31 727.06 C 954.60 731.29 954.70 735.63 953.67 739.78 C 953.25 741.01 952.53 742.67 950.98 742.60 C 945.05 742.82 939.11 742.59 933.18 742.67 C 933.19 757.81 933.15 772.95 933.20 788.09 C 933.35 792.35 933.59 797.10 936.51 800.49 C 939.95 803.75 945.29 802.95 949.26 801.18 C 950.52 800.75 952.78 799.44 953.47 801.32 C 954.95 806.75 954.76 812.60 953.79 818.11 C 953.21 822.09 948.83 823.35 945.51 824.22 C 936.55 826.09 925.94 825.72 918.86 819.22 C 912.11 812.77 910.77 802.87 910.46 794.00 C 910.32 776.89 910.45 759.77 910.40 742.66 C 906.79 742.55 903.13 743.02 899.57 742.38 C 896.85 740.07 897.92 736.10 897.74 733.00 C 897.78 729.14 896.27 724.43 899.27 721.30 C 902.82 720.23 906.71 721.03 910.40 720.82 C 910.55 713.37 910.11 705.89 910.59 698.46 Z" />
<path fill="#5b5b5b" opacity="1.00" d=" M 233.54 718.82 C 242.10 717.45 251.12 718.40 259.04 721.99 C 261.49 723.18 264.40 724.83 264.67 727.86 C 265.30 732.73 265.54 737.79 264.46 742.61 C 263.97 744.92 261.35 744.10 260.00 743.15 C 252.92 738.87 244.31 735.53 236.02 738.04 C 229.82 739.79 227.60 748.47 231.72 753.23 C 235.31 757.42 240.75 759.19 245.63 761.40 C 252.85 764.57 260.39 768.35 264.86 775.15 C 269.97 782.70 270.44 792.42 268.77 801.14 C 267.01 810.30 260.59 818.39 251.96 822.01 C 240.47 826.87 226.96 826.44 215.59 821.41 C 212.41 819.94 208.68 817.94 208.16 814.08 C 207.44 808.91 207.04 803.38 208.67 798.36 C 209.61 796.31 212.08 797.60 213.40 798.51 C 219.28 802.34 225.80 805.85 232.99 805.97 C 237.43 806.14 242.52 805.06 245.32 801.30 C 248.01 797.28 248.00 791.16 244.33 787.72 C 240.40 783.84 234.98 782.20 230.13 779.83 C 223.03 776.52 215.69 772.38 211.81 765.26 C 206.91 756.26 206.78 744.93 210.67 735.54 C 214.51 726.28 223.84 720.30 233.54 718.82 Z" />
<path fill="#5b5b5b" opacity="1.00" d=" M 603.49 721.53 C 608.64 717.40 616.17 717.34 621.95 720.12 C 624.12 721.19 623.91 723.98 624.18 726.02 C 624.41 731.24 624.51 736.49 623.91 741.69 C 623.62 743.26 623.18 745.91 621.03 745.59 C 617.22 744.77 613.44 742.37 609.44 743.69 C 604.16 745.56 600.89 750.52 597.98 755.01 C 596.77 757.17 594.93 759.25 595.00 761.87 C 594.93 780.95 595.07 800.04 594.95 819.12 C 595.29 821.72 592.55 822.87 590.44 823.17 C 585.67 823.85 580.73 823.94 575.98 823.04 C 574.00 822.73 571.70 821.43 572.07 819.09 C 571.99 787.69 572.01 756.29 572.05 724.90 C 571.56 721.06 576.13 720.41 578.93 720.27 C 582.91 720.31 587.72 719.47 590.97 722.26 C 592.35 726.70 591.30 731.60 591.60 736.22 C 594.92 730.87 598.47 725.45 603.49 721.53 Z" />
<path fill="#5b5b5b" opacity="1.00" d=" M 865.58 718.80 C 875.23 717.40 885.80 718.48 894.14 723.86 C 896.71 725.22 895.97 728.29 896.55 730.64 C 897.92 734.89 897.60 739.72 895.78 743.78 C 893.96 744.88 892.20 743.12 890.62 742.42 C 883.73 738.35 875.12 735.48 867.25 738.31 C 861.22 740.56 859.62 749.45 864.19 753.85 C 868.21 757.96 873.88 759.65 878.96 762.02 C 885.70 765.08 892.64 768.80 896.80 775.17 C 902.15 783.14 902.45 793.46 900.37 802.56 C 898.29 811.13 892.09 818.52 883.97 821.98 C 872.48 826.86 858.97 826.45 847.59 821.45 C 844.34 819.96 840.55 817.90 840.06 813.96 C 839.37 808.85 839.00 803.41 840.55 798.43 C 841.26 796.58 843.49 797.28 844.73 798.15 C 850.00 801.50 855.56 804.83 861.86 805.71 C 866.39 806.32 871.42 806.08 875.25 803.31 C 878.94 800.65 879.86 795.41 878.58 791.26 C 877.08 787.35 873.24 785.08 869.68 783.31 C 861.98 779.67 853.63 776.65 847.57 770.43 C 839.25 761.70 838.13 748.02 841.99 737.02 C 845.48 726.98 855.30 720.29 865.58 718.80 Z" />
<path fill="#5b5b5b" opacity="1.00" d=" M 965.99 725.04 C 978.44 718.27 993.44 716.52 1007.18 719.82 C 1014.06 721.52 1020.59 725.65 1024.01 732.01 C 1028.46 740.22 1028.82 749.86 1028.77 759.00 C 1028.71 779.30 1028.87 799.61 1028.70 819.92 C 1028.68 823.22 1024.57 823.43 1022.12 823.60 C 1018.36 823.52 1014.10 824.29 1010.78 822.17 C 1009.05 819.25 1010.22 815.47 1009.95 812.24 C 1004.84 818.30 998.11 823.45 990.14 824.85 C 980.75 826.50 970.18 824.59 963.11 817.87 C 957.41 812.51 954.75 804.62 954.47 796.95 C 954.05 789.10 955.52 780.71 960.64 774.51 C 965.89 768.07 974.06 764.90 982.02 763.44 C 990.04 761.93 998.24 762.07 1006.38 762.09 C 1006.27 755.86 1007.01 748.99 1003.47 743.50 C 1000.57 739.19 994.90 738.38 990.10 738.51 C 981.59 738.50 973.74 742.36 966.65 746.70 C 964.97 747.67 962.39 749.07 960.93 747.04 C 958.41 742.85 958.74 737.57 959.22 732.89 C 959.65 729.14 962.92 726.71 965.99 725.04 M 983.60 781.48 C 976.47 784.91 975.08 794.83 978.74 801.25 C 981.72 806.31 988.55 807.34 993.78 805.67 C 999.15 803.88 1002.91 799.35 1006.39 795.13 C 1006.35 789.71 1006.38 784.30 1006.37 778.90 C 998.77 779.07 990.65 778.02 983.60 781.48 Z" />
<path fill="#5b5b5b" opacity="1.00" d=" M 1083.76 718.78 C 1091.52 717.34 1100.15 718.58 1106.47 723.57 C 1112.04 727.81 1115.32 734.37 1117.04 741.03 C 1119.53 751.15 1118.98 761.66 1119.05 772.00 C 1119.01 787.68 1119.12 803.36 1119.00 819.04 C 1119.36 821.95 1116.16 823.03 1113.86 823.30 C 1108.74 823.77 1103.34 824.15 1098.40 822.49 C 1096.47 821.86 1096.09 819.76 1096.24 818.01 C 1096.24 800.01 1096.26 782.02 1096.23 764.02 C 1096.14 757.84 1095.67 751.16 1091.86 746.03 C 1088.55 741.50 1081.79 740.24 1076.98 743.03 C 1071.54 746.05 1067.82 751.24 1064.27 756.19 C 1064.27 777.13 1064.33 798.07 1064.25 819.00 C 1064.64 822.06 1061.22 823.05 1058.85 823.32 C 1053.77 823.77 1048.44 824.13 1043.54 822.50 C 1041.56 821.94 1041.16 819.79 1041.31 818.04 C 1041.34 787.01 1041.28 755.98 1041.34 724.95 C 1040.87 720.78 1045.97 720.34 1048.97 720.23 C 1052.73 720.36 1057.52 719.48 1060.40 722.47 C 1061.51 726.61 1060.64 731.07 1060.89 735.34 C 1066.89 728.03 1074.17 720.80 1083.76 718.78 Z" />
<path fill="#5b5b5b" opacity="1.00" d=" M 638.16 723.23 C 647.36 717.84 658.72 717.68 668.82 720.34 C 676.17 721.43 683.66 720.49 691.06 720.84 C 699.21 721.35 707.41 719.10 715.50 720.75 C 717.94 721.13 718.77 723.71 719.43 725.74 C 725.96 747.38 732.36 769.07 739.06 790.65 C 745.20 768.48 750.92 746.19 757.02 724.01 C 757.46 721.17 760.52 720.45 762.94 720.33 C 768.22 720.03 773.81 719.74 778.70 722.14 C 780.68 721.18 782.82 720.62 785.04 720.77 C 800.70 720.94 816.37 720.64 832.03 720.91 C 834.95 720.60 836.28 723.59 836.32 726.05 C 836.74 732.87 837.00 740.24 833.36 746.32 C 823.20 764.68 813.00 783.01 802.84 801.37 C 813.53 801.48 824.23 801.20 834.91 801.48 C 837.36 801.31 838.05 804.10 838.33 806.00 C 838.98 810.89 839.04 816.01 837.69 820.80 C 837.09 823.40 834.01 822.95 832.00 823.04 C 815.29 822.91 798.56 823.12 781.85 822.94 C 779.09 823.18 777.12 820.64 776.98 818.09 C 776.39 811.51 775.98 804.32 779.51 798.41 C 789.93 779.77 800.30 761.10 810.70 742.44 C 800.83 742.26 790.92 742.77 781.07 742.22 C 777.92 740.37 778.47 736.00 777.86 732.89 C 766.17 773.71 754.20 814.45 742.33 855.21 C 741.83 858.65 738.68 860.40 735.57 861.00 L 719.26 861.00 C 717.41 860.01 715.75 858.34 716.75 856.10 C 720.13 845.11 724.18 834.32 727.73 823.37 C 726.16 821.49 724.67 819.49 723.97 817.12 C 715.63 790.82 707.12 764.57 698.79 738.26 C 698.17 739.20 697.57 740.15 696.96 741.11 C 693.53 741.14 690.11 741.15 686.68 741.09 C 691.27 748.18 690.73 757.14 688.81 765.01 C 686.78 773.32 681.20 780.81 673.39 784.49 C 663.97 788.86 652.35 789.70 643.09 784.43 C 641.37 787.92 639.26 792.47 642.04 796.01 C 645.14 799.78 650.54 799.15 654.91 799.47 C 664.57 800.11 674.73 799.17 683.80 803.21 C 690.32 806.02 695.34 811.90 697.21 818.74 C 699.95 829.00 697.99 840.79 690.89 848.89 C 684.93 855.76 676.11 859.40 667.34 861.00 L 643.35 861.00 C 635.80 859.72 627.91 857.23 622.59 851.41 C 617.01 845.22 616.07 835.97 618.29 828.19 C 619.97 822.01 624.10 816.90 628.73 812.64 C 623.83 808.95 620.64 803.14 620.75 796.95 C 620.37 788.98 624.37 781.70 629.41 775.84 C 622.35 766.91 621.32 754.76 623.60 743.95 C 625.44 735.48 630.55 727.57 638.16 723.23 M 652.49 737.65 C 642.63 740.55 640.71 753.54 644.14 761.92 C 647.55 770.77 661.23 772.22 666.68 764.63 C 670.84 758.70 671.08 750.41 668.06 743.94 C 665.36 738.25 658.29 736.10 652.49 737.65 M 639.68 829.04 C 638.92 832.46 639.16 836.55 641.84 839.12 C 645.31 842.47 650.39 843.23 655.02 843.48 C 660.40 843.68 666.24 843.09 670.64 839.68 C 674.98 836.47 676.47 830.26 674.70 825.28 C 673.16 821.47 668.91 819.69 665.07 819.35 C 658.97 818.84 652.85 818.96 646.75 818.60 C 643.68 821.49 640.67 824.82 639.68 829.04 Z" />
<path fill="#5b5b5b" opacity="1.00" d=" M 181.39 720.66 C 186.86 720.10 192.92 719.40 198.01 721.94 C 200.54 724.10 199.05 728.04 199.45 730.97 C 199.42 759.98 199.44 788.99 199.44 818.00 C 199.34 819.43 199.57 821.31 198.01 822.08 C 194.96 823.72 191.35 823.55 188.00 823.68 C 184.62 823.55 181.00 823.72 177.92 822.10 C 176.39 821.33 176.51 819.43 176.46 818.01 C 176.48 789.34 176.48 760.68 176.47 732.01 C 176.51 729.18 176.26 726.33 176.67 723.54 C 177.29 721.57 179.63 721.07 181.39 720.66 Z" />
<path fill="#5b5b5b" opacity="1.00" d=" M 281.45 720.68 C 285.88 719.97 290.45 719.99 294.88 720.69 C 297.06 721.05 299.92 722.25 299.60 724.96 C 299.66 756.31 299.65 787.67 299.61 819.03 C 299.96 821.58 297.35 822.86 295.23 823.15 C 290.70 823.87 286.05 823.84 281.51 823.23 C 279.29 822.92 276.27 821.82 276.71 819.02 C 276.64 787.68 276.64 756.32 276.71 724.98 C 276.33 722.21 279.26 721.07 281.45 720.68 Z" />
<path fill="#5b5b5b" opacity="1.00" d=" M 484.80 723.18 C 485.90 720.92 488.72 720.64 490.92 720.39 C 495.46 720.10 500.09 719.89 504.58 720.72 C 506.92 721.05 507.89 723.40 508.51 725.40 C 515.08 747.19 521.58 769.00 528.25 790.77 C 534.33 768.57 540.11 746.29 546.18 724.10 C 546.79 720.48 551.02 720.35 553.91 720.22 C 558.10 720.21 562.57 719.79 566.50 721.53 C 569.69 723.12 568.63 727.19 567.98 729.95 C 555.80 771.85 543.66 813.76 531.39 855.63 C 530.82 858.91 527.64 860.40 524.69 861.00 L 508.52 861.00 C 506.62 860.09 504.95 858.38 505.94 856.15 C 509.29 845.13 513.38 834.34 516.92 823.38 C 515.32 821.45 513.80 819.41 513.12 816.98 C 503.94 788.10 494.66 759.26 485.43 730.40 C 484.85 728.07 483.88 725.53 484.80 723.18 Z" />
</g>
</svg>
